<svg width="2379" height="1114" viewBox="0 0 2379 1114" fill="none" xmlns="http://www.w3.org/2000/svg">
<g clip-path="url(#clip0_320_17)">
<path d="M-367.443 605.845H-343.766L-371.933 618.092L-367.443 605.845ZM-392.345 653.199L-379.281 634.829L-363.769 653.199H-392.345ZM-371.933 618.092L-343.766 605.845L136.718 604.62V599.721H138.351V589.924H139.984V580.127H141.617V568.696H143.25V558.899H144.883V549.101H146.516V537.671H148.149V527.873H149.782V516.443H151.415V506.646H153.047V496.848H154.68V485.418H156.313V475.62H157.946V464.19H159.579V454.392H161.212V444.595H162.845V433.165H164.478V423.367H166.111V411.937H167.744V402.139H169.377V392.342H171.009V380.912H172.642V371.114H174.275V361.317H175.908V349.886H177.541V340.089H179.174V328.658H180.807V318.861H182.44V309.063H184.073V297.633H185.706V287.836H187.339V276.405H188.971V266.608H190.604V256.81H192.237V245.38H193.87V235.583H195.503V224.152H197.136V214.355H198.769V204.557H200.402V193.127H202.035V183.329H203.668V173.532H205.301V162.102H206.933V152.304H208.566V140.874H210.199V131.076H211.832V121.279H213.465V111.481H215.098V109.848H332.668V114.747H334.3V122.912H335.933V129.443H337.566V135.975H339.199V142.507H340.832V149.038H342.465V155.57H344.098V163.734H345.731V170.266H347.364V176.798H348.997V183.329H350.63V189.861H352.262V198.026H353.895V204.557H355.528V211.089H357.161V217.62H358.794V224.152H360.427V230.684H362.06V238.848H363.693V245.38H365.326V251.912H366.959V258.443H368.592V264.975H370.225V271.507H371.857V279.671H373.49V286.203H375.123V292.734H376.756V299.266H378.389V305.798H380.022V312.329H381.655V320.494H383.288V327.025H384.921V333.557H386.554V340.089H388.187V346.62H389.819V353.152H391.452V361.317H393.085V367.848H394.718V374.38H396.351V380.912H397.984V387.443H399.617V395.608H401.25V402.139H404.516V395.608H406.149V387.443H407.781V380.912H409.414V374.38H411.047V367.848H412.68V361.317H414.313V353.152H415.946V346.62H417.579V340.089H419.212V333.557H420.845V327.025H422.478V320.494H424.111V312.329H425.743V305.798H427.376V299.266H429.009V292.734H430.642V286.203H432.275V279.671H433.908V271.507H435.541V264.975H437.174V258.443H438.807V251.912H440.44V245.38H442.073V238.848H443.705V230.684H445.338V224.152H446.971V217.62H448.604V211.089H450.237V204.557H451.87V198.026H453.503V189.861H455.136V183.329H456.769V176.798H458.402V170.266H460.035V163.734H461.667V155.57H463.3V149.038H464.933V142.507H466.566V135.975H468.199V129.443H469.832V122.912H471.465V114.747H473.098V109.848H590.667V111.481H592.3V121.279H593.933V131.076H595.566V140.874H597.199V152.304H598.832V162.102H600.465V173.532H602.098V183.329H603.731V193.127H605.364V204.557H606.996V214.355H608.629V224.152H610.262V235.583H611.895V245.38H613.528V256.81H615.161V266.608H616.794V276.405H618.427V287.836H620.06V297.633H621.693V309.063H623.326V318.861H624.959V328.658H626.591V340.089H628.224V349.886H629.857V361.317H631.49V371.114H633.123V380.912H634.756V392.342H636.389V402.139H638.022V411.937H639.655V423.367H641.288V433.165H642.921V444.595H644.553V454.392H646.186V464.19H647.819V475.62H649.452V485.418H651.085V496.848H652.718V506.646H654.351V516.443H655.984V527.873H657.617V537.671H659.25V549.101H660.883V558.899H662.515V568.696H664.148V580.127H665.781V589.924H667.414V599.721H669.047V611.152H670.68V620.949H672.313V632.38H673.946V642.177H675.579V651.975H559.642V642.177H558.009V630.747H556.376V619.316H554.743V607.886H553.11V596.456H551.478V585.025H549.845V571.962H548.212V560.532H546.579V549.101H544.946V537.671H543.313V526.241H541.68V514.81H540.047V503.38H538.414V490.317H536.781V478.886H535.148V467.456H533.516V456.025H531.883V444.595H530.25V433.165H528.617V421.734H526.984V410.304H525.351V397.241H523.718V385.81H522.085V374.38H520.452V362.95H518.819V369.481H517.186V376.013H515.554V384.177H513.921V390.709H512.288V397.241H510.655V405.405H509.022V411.937H507.389V420.101H505.756V426.633H504.123V433.165H502.49V441.329H500.857V447.861H499.224V456.025H497.592V462.557H495.959V469.089H494.326V477.253H492.693V483.785H491.06V491.949H489.427V498.481H487.794V505.013H486.161V513.177H484.528V519.709H482.895V527.873H481.262V534.405H479.629V540.937H477.997V549.101H476.364V555.633H474.731V563.797H473.098V570.329H471.465V576.861H469.832V585.025H468.199V591.557H466.566V599.721H464.933V606.253H463.3V612.785H461.667V620.949H460.035V627.481H458.402V635.646H456.769V642.177H455.136V648.709H453.503V651.975H352.262V648.709H350.63V642.177H348.997V635.646H347.364V627.481H345.731V620.949H344.098V612.785H342.465V606.253H340.832V599.721H339.199V591.557H337.566V585.025H335.933V576.861H334.3V570.329H332.668V563.797H331.035V555.633H329.402V549.101H327.769V540.937H326.136V534.405H324.503V527.873H322.87V519.709H321.237V513.177H319.604V505.013H317.971V498.481H316.338V491.949H314.706V483.785H313.073V477.253H311.44V469.089H309.807V462.557H308.174V456.025H306.541V447.861H304.908V441.329H303.275V433.165H301.642V426.633H300.009V420.101H298.376V411.937H296.744V405.405H295.111V397.241H293.478V390.709H291.845V384.177H290.212V376.013H288.579V369.481H286.946V362.95H285.313V374.38H283.68V385.81H282.047V397.241H280.414V410.304H278.782V421.734H277.149V433.165H275.516V444.595H273.883V456.025H272.25V467.456H270.617V478.886H268.984V490.317H267.351V503.38H265.718V514.81H264.085V526.241H262.452V537.671H260.82V549.101H259.187V560.532H257.554V571.962H255.921V585.025H254.288V596.456H252.655V607.886H251.022V619.316H249.389V630.747H247.756V642.177H246.123V653.199H-363.769L-379.281 634.829L-371.933 618.092ZM-459.702 606.253L-380.098 605.845L-405.816 653.199H-491.952L-459.702 606.253ZM-483.379 605.845L-491.544 622.174L-504.199 638.911L-519.303 653.199L-1090.41 651.975V642.177H-1088.78V630.747H-1087.15V619.316H-1085.51V606.253H-1083.88V604.62L-522.161 605.845H-483.379ZM1634.51 109.848L1626.75 157.203H647.411L641.696 109.848H1634.51ZM660.066 651.975L654.351 604.62H1626.75L1634.51 651.975H660.066ZM969.617 217.62H1057.79V335.19H1152.5V217.62H1240.68V554H1152.5V418.468H1069.22V415.203H1067.59V410.304H1065.96V403.772H1064.33V397.241H1062.69V390.709H1061.06V384.177H1059.43V418.468H1057.79V554H969.617V217.62ZM1341.82 217.62H1464.29V224.152H1465.92V230.684H1467.56V237.215H1469.19V243.747H1470.82V251.912H1472.46V258.443H1474.09V264.975H1475.72V273.139H1477.35V279.671H1478.99V286.203H1480.62V292.734H1482.25V300.899H1483.89V307.431H1485.52V313.962H1487.15V320.494H1488.78V328.658H1490.42V335.19H1492.05V341.722H1493.68V349.886H1495.32V356.418H1496.95V362.95H1498.58V369.481H1500.21V377.646H1501.85V384.177H1503.48V390.709H1505.11V397.241H1506.75V405.405H1508.38V411.937H1510.01V418.468H1511.65V426.633H1513.28V433.165H1514.91V439.696H1516.54V446.228H1518.18V454.392H1519.81V460.924H1521.44V467.456H1523.08V475.62H1524.71V482.152H1526.34V488.684H1527.97V495.215H1529.61V503.38H1531.24V509.911H1532.87V516.443H1534.51V522.975H1536.14V531.139H1537.77V537.671H1539.4V544.203H1541.04V552.367H1542.67V554H1452.86V547.468H1451.23V539.304H1449.59V531.139H1447.96V522.975H1446.33V516.443H1444.7V508.279H1443.06V500.114H1441.43V491.949H1439.8V487.051H1371.21V483.785H1369.58V478.886H1367.95V475.62H1366.32V470.722H1364.68V465.823H1363.05V464.19H1361.42V469.089H1359.78V475.62H1358.15V482.152H1356.52V488.684H1354.89V495.215H1353.25V500.114H1351.62V506.646H1349.99V513.177H1348.35V519.709H1346.72V526.241H1345.09V531.139H1343.46V537.671H1341.82V544.203H1340.19V550.734H1338.56V554H1243.85V550.734H1245.48V544.203H1247.11V539.304H1248.75V532.772H1250.38V527.873H1252.01V522.975H1253.65V516.443H1255.28V511.544H1256.91V505.013H1258.54V500.114H1260.18V495.215H1261.81V488.684H1263.44V483.785H1265.08V477.253H1266.71V472.354H1268.34V467.456H1269.97V460.924H1271.61V456.025H1273.24V449.494H1274.87V444.595H1276.51V439.696H1278.14V433.165H1279.77V428.266H1281.4V421.734H1283.04V416.836H1284.67V411.937H1286.3V405.405H1287.94V400.506H1289.57V393.975H1291.2V389.076H1292.84V384.177H1294.47V377.646H1296.1V372.747H1297.73V366.215H1299.37V361.317H1301V356.418H1302.63V349.886H1304.27V344.987H1305.9V338.456H1307.53V333.557H1309.16V328.658H1310.8V322.127H1312.43V317.228H1314.06V310.696H1315.7V305.798H1317.33V300.899H1318.96V294.367H1320.59V289.469H1322.23V282.937H1323.86V278.038H1325.49V273.139H1327.13V266.608H1328.76V261.709H1330.39V255.177H1332.02V250.279H1333.66V245.38H1335.29V238.848H1336.92V233.95H1338.56V227.418H1340.19V222.519H1341.82V217.62ZM1402.24 310.696V315.595H1400.61V322.127H1398.97V327.025H1397.34V333.557H1395.71V340.089H1394.08V346.62H1392.44V353.152H1390.81V358.051H1389.18V364.582H1387.54V371.114H1385.91V377.646H1384.28V384.177H1382.65V389.076H1381.01V395.608H1379.38V402.139H1377.75V408.671H1423.47V405.405H1421.83V397.241H1420.2V389.076H1418.57V380.912H1416.94V372.747H1415.3V364.582H1413.67V358.051H1412.04V349.886H1410.4V341.722H1408.77V333.557H1407.14V325.393H1405.51V317.228H1403.87V310.696H1402.24ZM1538.49 545.835H1540.12V537.671H1541.76V529.506H1543.39V521.342H1545.02V511.544H1546.65V503.38H1548.29V495.215H1549.92V485.418H1551.55V477.253H1553.19V469.089H1554.82V459.291H1556.45V451.127H1558.09V442.962H1559.72V433.165H1561.35V425H1562.98V416.836H1564.62V407.038H1566.25V398.874H1567.88V390.709H1569.52V382.544H1571.15V372.747H1572.78V364.582H1574.41V356.418H1576.05V346.62H1577.68V338.456H1579.31V330.291H1580.95V320.494H1582.58V312.329H1584.21V304.165H1585.84V294.367H1587.48V286.203H1589.11V278.038H1590.74V269.874H1592.38V260.076H1594.01V251.912H1595.64V243.747H1597.27V233.95H1598.91V225.785H1600.54V219.253H1687.08V222.519H1688.72V229.051H1690.35V235.583H1691.98V243.747H1693.62V250.279H1695.25V256.81H1696.88V263.342H1698.52V271.507H1700.15V278.038H1701.78V284.57H1703.41V291.101H1705.05V299.266H1706.68V305.798H1708.31V312.329H1709.95V318.861H1711.58V327.025H1713.21V333.557H1714.84V340.089H1716.48V346.62H1718.11V354.785H1719.74V361.317H1721.38V367.848H1723.01V374.38H1724.64V382.544H1726.27V389.076H1727.91V395.608H1729.54V402.139H1731.17V410.304H1732.81V416.836H1734.44V423.367H1736.07V426.633H1737.71V420.101H1739.34V411.937H1740.97V405.405H1742.6V398.874H1744.24V392.342H1745.87V384.177H1747.5V377.646H1749.14V371.114H1750.77V364.582H1752.4V356.418H1754.03V349.886H1755.67V343.355H1757.3V336.823H1758.93V328.658H1760.57V322.127H1762.2V315.595H1763.83V309.063H1765.46V300.899H1767.1V294.367H1768.73V287.836H1770.36V281.304H1772V273.139H1773.63V266.608H1775.26V260.076H1776.9V253.545H1778.53V247.013H1780.16V238.848H1781.79V232.317H1783.43V225.785H1785.06V220.886H1786.69V219.253H1871.6V220.886H1873.24V230.684H1874.87V238.848H1876.5V248.646H1878.14V256.81H1879.77V264.975H1881.4V274.772H1883.03V282.937H1884.67V291.101H1886.3V300.899H1887.93V309.063H1889.57V317.228H1891.2V327.025H1892.83V335.19H1894.46V344.987H1896.1V353.152H1897.73V361.317H1899.36V371.114H1901V379.279H1902.63V387.443H1904.26V397.241H1905.89V405.405H1907.53V413.57H1909.16V423.367H1910.79V431.532H1912.43V439.696H1914.06V449.494H1915.69V457.658H1917.33V467.456H1918.96V475.62H1920.59V483.785H1922.22V493.582H1923.86V501.747H1925.49V509.911H1927.12V519.709H1928.76V527.873H1930.39V536.038H1932.02V545.835H1933.65V554H1850.38V545.835H1848.74V536.038H1847.11V524.608H1845.48V514.81H1843.84V505.013H1842.21V495.215H1840.58V483.785H1838.95V473.987H1837.31V464.19H1835.68V454.392H1834.05V442.962H1832.41V433.165H1830.78V423.367H1829.15V413.57H1827.52V402.139H1825.88V392.342H1824.25V382.544H1822.62V372.747H1820.98V376.013H1819.35V382.544H1817.72V389.076H1816.08V395.608H1814.45V403.772H1812.82V410.304H1811.19V416.836H1809.55V423.367H1807.92V431.532H1806.29V438.063H1804.65V444.595H1803.02V451.127H1801.39V459.291H1799.76V465.823H1798.12V472.354H1796.49V478.886H1794.86V487.051H1793.22V493.582H1791.59V500.114H1789.96V506.646H1788.33V514.81H1786.69V521.342H1785.06V527.873H1783.43V536.038H1781.79V542.57H1780.16V549.101H1778.53V554H1693.62V547.468H1691.98V539.304H1690.35V532.772H1688.72V526.241H1687.08V519.709H1685.45V511.544H1683.82V505.013H1682.19V498.481H1680.55V491.949H1678.92V483.785H1677.29V477.253H1675.65V470.722H1674.02V462.557H1672.39V456.025H1670.76V449.494H1669.12V442.962H1667.49V434.798H1665.86V428.266H1664.22V421.734H1662.59V415.203H1660.96V407.038H1659.33V400.506H1657.69V393.975H1656.06V385.81H1654.43V379.279H1652.79V372.747H1651.16V376.013H1649.53V385.81H1647.9V395.608H1646.26V407.038H1644.63V416.836H1643V426.633H1641.36V436.43H1639.73V447.861H1638.1V457.658H1636.46V467.456H1634.83V477.253H1633.2V488.684H1631.57V498.481H1629.93V508.279H1628.3V518.076H1626.67V529.506H1625.03V539.304H1623.4V549.101H1621.77V554H1538.49V545.835ZM1929.47 217.62H2104.2V286.203H2020.92V353.152H2089.5V423.367H2020.92V487.051H2104.2V554H1929.47V423.367H1867.42V421.734H1869.06V418.468H1870.69V415.203H1872.32V413.57H1873.96V410.304H1875.59V407.038H1877.22V403.772H1878.85V402.139H1880.49V398.874H1882.12V395.608H1883.75V393.975H1885.39V390.709H1887.02V387.443H1888.65V385.81H1890.28V382.544H1891.92V379.279H1893.55V377.646H1895.18V374.38H1896.82V371.114H1898.45V369.481H1900.08V366.215H1901.71V362.95H1903.35V361.317H1904.98V358.051H1906.61V354.785H1908.25V353.152H1929.47V217.62ZM2107.36 217.62H2251.06V219.253H2267.39V220.886H2275.55V222.519H2282.08V224.152H2286.98V225.785H2291.88V227.418H2295.15V229.051H2298.41V230.684H2301.68V232.317H2304.95V233.95H2308.21V235.583H2309.84V237.215H2311.48V238.848H2314.74V240.481H2316.38V242.114H2318.01V243.747H2321.27V245.38H2322.91V247.013H2324.54V248.646H2326.17V250.279H2327.81V251.912H2329.44V255.177H2331.07V256.81H2332.71V258.443H2334.34V260.076H2335.97V263.342H2337.6V264.975H2339.24V266.608H2340.87V269.874H2342.5V273.139H2344.14V274.772H2345.77V278.038H2347.4V281.304H2349.03V284.57H2350.67V289.469H2352.3V292.734H2353.93V296H2355.57V300.899H2357.2V305.798H2358.83V312.329H2360.46V318.861H2362.1V325.393H2363.73V335.19H2365.36V344.987H2367V362.95H2368.63V411.937H2367V431.532H2365.36V442.962H2363.73V451.127H2362.1V457.658H2360.46V464.19H2358.83V469.089H2357.2V473.987H2355.57V477.253H2353.93V482.152H2352.3V485.418H2350.67V488.684H2349.03V491.949H2347.4V495.215H2345.77V496.848H2344.14V500.114H2342.5V503.38H2340.87V505.013H2339.24V506.646H2337.6V509.911H2335.97V511.544H2334.34V513.177H2332.71V514.81H2331.07V518.076H2329.44V519.709H2327.81V521.342H2326.17V522.975H2324.54V524.608H2322.91V526.241H2321.27V527.873H2318.01V529.506H2316.38V531.139H2314.74V532.772H2313.11V534.405H2309.84V536.038H2308.21V537.671H2304.95V539.304H2301.68V540.937H2298.41V542.57H2295.15V544.203H2290.25V545.835H2285.35V547.468H2278.82V549.101H2272.29V550.734H2265.76V552.367H2254.33V554H2107.36V217.62ZM2195.54 274.772V477.253H2233.1V475.62H2242.89V473.987H2249.43V472.354H2252.69V470.722H2255.96V469.089H2257.59V467.456H2259.22V465.823H2262.49V462.557H2264.12V460.924H2265.76V459.291H2267.39V456.025H2269.02V452.76H2270.65V449.494H2272.29V446.228H2273.92V441.329H2275.55V433.165H2277.19V423.367H2278.82V400.506H2280.45V374.38H2278.82V353.152H2277.19V343.355H2275.55V335.19H2273.92V330.291H2272.29V325.393H2270.65V322.127H2269.02V318.861H2267.39V315.595H2265.76V313.962H2264.12V312.329H2262.49V310.696H2260.86V309.063H2259.22V307.431H2257.59V305.798H2255.96V304.165H2252.69V302.532H2251.06V300.899H2246.16V299.266H2242.89V297.633H2236.36V296H2224.93V294.367H2203.71V289.469H2202.07V286.203H2200.44V281.304H2198.81V278.038H2197.17V274.772H2195.54Z" fill="#552583"/>
<path d="M564 681.62H738.721V750.203H655.443V817.152H724.025V887.367H655.443V1018H564V887.367H501.949V885.734H503.582V882.468H505.215V879.203H506.848V877.57H508.481V874.304H510.114V871.038H511.747V867.772H513.38V866.139H515.013V862.874H516.646V859.608H518.279V857.975H519.911V854.709H521.544V851.443H523.177V849.81H524.81V846.544H526.443V843.279H528.076V841.646H529.709V838.38H531.342V835.114H532.975V833.481H534.608V830.215H536.241V826.95H537.873V825.317H539.506V822.051H541.139V818.785H542.772V817.152H564V681.62ZM839.864 681.62H962.332V688.152H963.965V694.684H965.598V701.215H967.231V707.747H968.864V715.912H970.497V722.443H972.13V728.975H973.762V737.139H975.395V743.671H977.028V750.203H978.661V756.734H980.294V764.899H981.927V771.431H983.56V777.962H985.193V784.494H986.826V792.658H988.459V799.19H990.092V805.722H991.725V813.886H993.357V820.418H994.99V826.95H996.623V833.481H998.256V841.646H999.889V848.177H1001.52V854.709H1003.15V861.241H1004.79V869.405H1006.42V875.937H1008.05V882.468H1009.69V890.633H1011.32V897.165H1012.95V903.696H1014.59V910.228H1016.22V918.392H1017.85V924.924H1019.48V931.456H1021.12V939.62H1022.75V946.152H1024.38V952.684H1026.02V959.215H1027.65V967.38H1029.28V973.911H1030.91V980.443H1032.55V986.975H1034.18V995.139H1035.81V1001.67H1037.45V1008.2H1039.08V1016.37H1040.71V1018H950.902V1011.47H949.269V1003.3H947.636V995.139H946.003V986.975H944.37V980.443H942.737V972.279H941.104V964.114H939.471V955.949H937.838V951.051H869.256V947.785H867.623V942.886H865.99V939.62H864.358V934.722H862.725V929.823H861.092V928.19H859.459V933.089H857.826V939.62H856.193V946.152H854.56V952.684H852.927V959.215H851.294V964.114H849.661V970.646H848.028V977.177H846.395V983.709H844.763V990.241H843.13V995.139H841.497V1001.67H839.864V1008.2H838.231V1014.73H836.598V1018H741.889V1014.73H743.522V1008.2H745.155V1003.3H746.788V996.772H748.421V991.873H750.054V986.975H751.687V980.443H753.32V975.544H754.953V969.013H756.585V964.114H758.218V959.215H759.851V952.684H761.484V947.785H763.117V941.253H764.75V936.354H766.383V931.456H768.016V924.924H769.649V920.025H771.282V913.494H772.915V908.595H774.547V903.696H776.18V897.165H777.813V892.266H779.446V885.734H781.079V880.836H782.712V875.937H784.345V869.405H785.978V864.506H787.611V857.975H789.244V853.076H790.877V848.177H792.509V841.646H794.142V836.747H795.775V830.215H797.408V825.317H799.041V820.418H800.674V813.886H802.307V808.987H803.94V802.456H805.573V797.557H807.206V792.658H808.839V786.127H810.471V781.228H812.104V774.696H813.737V769.798H815.37V764.899H817.003V758.367H818.636V753.469H820.269V746.937H821.902V742.038H823.535V737.139H825.168V730.608H826.801V725.709H828.433V719.177H830.066V714.279H831.699V709.38H833.332V702.848H834.965V697.95H836.598V691.418H838.231V686.519H839.864V681.62ZM900.282 774.696V779.595H898.649V786.127H897.016V791.025H895.383V797.557H893.75V804.089H892.117V810.62H890.484V817.152H888.851V822.051H887.218V828.582H885.585V835.114H883.952V841.646H882.32V848.177H880.687V853.076H879.054V859.608H877.421V866.139H875.788V872.671H921.509V869.405H919.876V861.241H918.244V853.076H916.611V844.912H914.978V836.747H913.345V828.582H911.712V822.051H910.079V813.886H908.446V805.722H906.813V797.557H905.18V789.393H903.547V781.228H901.914V774.696H900.282ZM1036.53 681.62H1185.13V683.253H1201.46V684.886H1211.25V686.519H1219.42V688.152H1225.95V689.785H1230.85V691.418H1235.75V693.051H1239.01V694.684H1243.91V696.317H1247.18V697.95H1250.44V699.583H1252.08V701.215H1255.34V702.848H1256.97V704.481H1260.24V706.114H1261.87V707.747H1263.51V709.38H1265.14V711.013H1268.4V714.279H1270.04V715.912H1271.67V717.545H1273.3V719.177H1274.94V720.81H1276.57V724.076H1278.2V725.709H1279.84V728.975H1281.47V732.241H1283.1V733.874H1284.73V738.772H1286.37V742.038H1288V746.937H1289.63V751.836H1291.27V758.367H1292.9V766.532H1294.53V782.861H1296.16V808.987H1294.53V825.317H1292.9V833.481H1291.27V841.646H1289.63V846.544H1288V851.443H1286.37V856.342H1284.73V859.608H1283.1V862.874H1281.47V866.139H1279.84V869.405H1278.2V871.038H1276.57V874.304H1274.94V875.937H1273.3V879.203H1271.67V880.836H1270.04V882.468H1268.4V884.101H1266.77V885.734H1265.14V887.367H1263.51V889H1261.87V890.633H1260.24V892.266H1258.61V893.899H1256.97V895.532H1253.71V897.165H1252.08V898.798H1248.81V900.43H1245.54V902.063H1242.28V903.696H1239.01V905.329H1240.65V906.962H1242.28V908.595H1243.91V910.228H1245.54V911.861H1247.18V913.494H1248.81V915.127H1250.44V916.76H1252.08V918.392H1253.71V921.658H1255.34V923.291H1256.97V924.924H1258.61V928.19H1260.24V929.823H1261.87V933.089H1263.51V934.722H1265.14V937.987H1266.77V941.253H1268.4V942.886H1270.04V946.152H1271.67V949.418H1273.3V952.684H1274.94V955.949H1276.57V960.848H1278.2V962.481H1279.84V965.747H1281.47V969.013H1283.1V972.279H1284.73V973.911H1286.37V977.177H1288V980.443H1289.63V982.076H1291.27V985.342H1292.9V986.975H1294.53V988.608H1296.16V991.873H1297.8V993.506H1299.43V996.772H1301.06V998.405H1302.7V1000.04H1304.33V1001.67H1305.96V1004.94H1307.59V1006.57H1309.23V1008.2H1310.86V1009.84H1312.49V1013.1H1314.13V1014.73H1315.76V1016.37H1317.39V1018H1319.03V1019.63H1320.66V1021.27H1322.29V1024.53H1323.92V1026.16H1325.56V1027.8H1327.19V1029.43H1328.82V1031.06H1330.46V1032.7H1332.09V1034.33H1333.72V1035.96H1335.35V1037.59H1336.99V1039.23H1338.62V1040.86H1340.25V1042.49H1341.89V1044.13H1343.52V1045.76H1345.15V1047.39H1346.78V1049.03H1348.42V1050.66H1350.05V1052.29H1351.68V1053.92H1353.32V1055.56H1354.95V1057.19H1356.58V1058.82H1247.18V1055.56H1245.54V1053.92H1243.91V1050.66H1242.28V1049.03H1240.65V1047.39H1239.01V1044.13H1237.38V1042.49H1235.75V1039.23H1234.11V1037.59H1232.48V1034.33H1230.85V1032.7H1229.21V1029.43H1227.58V1027.8H1225.95V1024.53H1224.32V1022.9H1222.68V1019.63H1221.05V1018H1219.42V1014.73H1217.78V1013.1H1216.15V1009.84H1214.52V1008.2H1212.89V1004.94H1211.25V1003.3H1209.62V1000.04H1207.99V998.405H1206.35V995.139H1204.72V993.506H1203.09V990.241H1201.46V988.608H1199.82V985.342H1198.19V983.709H1196.56V980.443H1194.92V978.81H1193.29V977.177H1191.66V973.911H1190.03V972.279H1188.39V969.013H1186.76V967.38H1185.13V964.114H1183.49V962.481H1181.86V959.215H1180.23V957.582H1178.59V954.317H1176.96V952.684H1175.33V951.051H1173.7V947.785H1172.06V946.152H1170.43V944.519H1168.8V941.253H1167.16V939.62H1165.53V937.987H1163.9V934.722H1162.27V933.089H1160.63V931.456H1159V928.19H1157.37V926.557H1155.73V924.924H1154.1V923.291H1152.47V920.025H1150.84V918.392H1149.2V916.76H1147.57V915.127H1145.94V911.861H1144.3V910.228H1142.67V908.595H1141.04V906.962H1139.4V905.329H1137.77V902.063H1136.14V900.43H1134.51V898.798H1132.87V897.165H1131.24V895.532H1129.61V893.899H1127.97V1018H1036.53V681.62ZM1127.97 750.203V859.608H1142.67V857.975H1149.2V856.342H1155.73V854.709H1159V853.076H1162.27V851.443H1165.53V849.81H1168.8V848.177H1172.06V846.544H1173.7V844.912H1175.33V843.279H1176.96V841.646H1178.59V840.013H1180.23V838.38H1181.86V836.747H1183.49V835.114H1185.13V833.481H1186.76V830.215H1188.39V826.95H1190.03V823.684H1191.66V818.785H1193.29V813.886H1194.92V804.089H1196.56V789.393H1194.92V779.595H1193.29V774.696H1191.66V771.431H1190.03V768.165H1188.39V766.532H1186.76V763.266H1185.13V761.633H1183.49V760H1180.23V758.367H1178.59V756.734H1175.33V755.101H1172.06V753.469H1168.8V751.836H1162.27V750.203H1127.97ZM1299.33 681.62H1387.51V799.19H1482.22V681.62H1570.4V1018H1482.22V882.468H1398.94V879.203H1397.31V874.304H1395.67V867.772H1394.04V861.241H1392.41V854.709H1390.78V848.177H1389.14V882.468H1387.51V1018H1299.33V681.62ZM1671.54 681.62H1794.01V688.152H1795.64V694.684H1797.27V701.215H1798.9V707.747H1800.54V715.912H1802.17V722.443H1803.8V728.975H1805.44V737.139H1807.07V743.671H1808.7V750.203H1810.34V756.734H1811.97V764.899H1813.6V771.431H1815.23V777.962H1816.87V784.494H1818.5V792.658H1820.13V799.19H1821.77V805.722H1823.4V813.886H1825.03V820.418H1826.66V826.95H1828.3V833.481H1829.93V841.646H1831.56V848.177H1833.2V854.709H1834.83V861.241H1836.46V869.405H1838.09V875.937H1839.73V882.468H1841.36V890.633H1842.99V897.165H1844.63V903.696H1846.26V910.228H1847.89V918.392H1849.52V924.924H1851.16V931.456H1852.79V939.62H1854.42V946.152H1856.06V952.684H1857.69V959.215H1859.32V967.38H1860.96V973.911H1862.59V980.443H1864.22V986.975H1865.85V995.139H1867.49V1001.67H1869.12V1008.2H1870.75V1016.37H1872.39V1018H1782.58V1011.47H1780.94V1003.3H1779.31V995.139H1777.68V986.975H1776.04V980.443H1774.41V972.279H1772.78V964.114H1771.15V955.949H1769.51V951.051H1700.93V947.785H1699.3V942.886H1697.66V939.62H1696.03V934.722H1694.4V929.823H1692.77V928.19H1691.13V933.089H1689.5V939.62H1687.87V946.152H1686.23V952.684H1684.6V959.215H1682.97V964.114H1681.34V970.646H1679.7V977.177H1678.07V983.709H1676.44V990.241H1674.8V995.139H1673.17V1001.67H1671.54V1008.2H1669.9V1014.73H1668.27V1018H1573.56V1014.73H1575.2V1008.2H1576.83V1003.3H1578.46V996.772H1580.09V991.873H1581.73V986.975H1583.36V980.443H1584.99V975.544H1586.63V969.013H1588.26V964.114H1589.89V959.215H1591.53V952.684H1593.16V947.785H1594.79V941.253H1596.42V936.354H1598.06V931.456H1599.69V924.924H1601.32V920.025H1602.96V913.494H1604.59V908.595H1606.22V903.696H1607.85V897.165H1609.49V892.266H1611.12V885.734H1612.75V880.836H1614.39V875.937H1616.02V869.405H1617.65V864.506H1619.28V857.975H1620.92V853.076H1622.55V848.177H1624.18V841.646H1625.82V836.747H1627.45V830.215H1629.08V825.317H1630.71V820.418H1632.35V813.886H1633.98V808.987H1635.61V802.456H1637.25V797.557H1638.88V792.658H1640.51V786.127H1642.15V781.228H1643.78V774.696H1645.41V769.798H1647.04V764.899H1648.68V758.367H1650.31V753.469H1651.94V746.937H1653.58V742.038H1655.21V737.139H1656.84V730.608H1658.47V725.709H1660.11V719.177H1661.74V714.279H1663.37V709.38H1665.01V702.848H1666.64V697.95H1668.27V691.418H1669.9V686.519H1671.54V681.62ZM1731.96 774.696V779.595H1730.32V786.127H1728.69V791.025H1727.06V797.557H1725.42V804.089H1723.79V810.62H1722.16V817.152H1720.53V822.051H1718.89V828.582H1717.26V835.114H1715.63V841.646H1713.99V848.177H1712.36V853.076H1710.73V859.608H1709.09V866.139H1707.46V872.671H1753.18V869.405H1751.55V861.241H1749.92V853.076H1748.28V844.912H1746.65V836.747H1745.02V828.582H1743.39V822.051H1741.75V813.886H1740.12V805.722H1738.49V797.557H1736.85V789.393H1735.22V781.228H1733.59V774.696H1731.96ZM1868.21 681.62H2047.83V748.57H2046.19V750.203H2003.74V1018H1912.29V750.203H1869.84V748.57H1868.21V681.62Z" fill="#552583"/>
<path d="M831.434 565.066C928.396 547.429 992.703 454.528 975.066 357.566C957.429 260.603 864.529 196.297 767.566 213.934C670.604 231.57 606.297 324.471 623.934 421.434C641.571 518.396 734.471 582.703 831.434 565.066Z" fill="#FDB927"/>
<path d="M747.919 563.121C732.874 557.679 718.803 550.384 706.583 542.851C677.894 525.166 655.37 498.786 641.416 468.109C599.479 375.915 633.321 306.957 661.295 277.804C689.828 242.124 741.196 209.927 808.046 211.558C891.609 213.596 933.387 268.614 958.864 310.396C979.244 343.821 980.263 392.259 978.226 412.3C977.546 424.189 969.258 457.751 941.54 496.882C928.041 515.938 911.579 529.807 896.319 539.452C871.955 554.852 843.562 563.343 815.031 567.433C793.676 570.496 768.981 570.739 747.919 563.121Z" stroke="black" stroke-width="10.1906"/>
<path d="M651.102 290.018C672.502 281.865 710.207 280.848 728.55 302.246C748.858 325.938 743.157 372.903 741.798 381.735L728.55 430.647L724.759 442.23C715.11 471.713 707.221 503.247 716.225 532.933C719.021 542.155 722.994 550.294 728.55 554.972" stroke="black" stroke-width="10.1906"/>
<path d="M838.034 213.335C819.656 226.117 817.182 256.127 821.294 281.866C825.847 310.363 856.085 328.283 863.07 331.801L871.166 336.627C884.056 344.31 897.871 350.323 912.278 354.522C931.071 359.999 949.558 367.96 962.449 382.691C970.665 392.079 977.602 403.077 977.579 412.947" stroke="black" stroke-width="10.1906"/>
<path d="M627.668 432.687C656.201 375.62 758.107 265.562 937.461 281.867" stroke="black" stroke-width="10.1906"/>
<path d="M731.609 225.819C766.597 236.349 838.406 317.942 845.744 560.07" stroke="black" stroke-width="10.1906"/>
</g>
<defs>
<clipPath id="clip0_320_17">
<rect width="2379" height="1114" fill="white"/>
</clipPath>
</defs>
</svg>
